name ./resultDataOpenSim/trcMotMarkerGrf/sub09/grf-12-05.mot
datacolumns 19
datarows 27
range 1.41600000 1.52000000
endheader

                time	     ground_force_vx	     ground_force_vy	     ground_force_vz	     ground_force_px	     ground_force_py	     ground_force_pz	   l_ground_force_vx	   l_ground_force_vy	   l_ground_force_vz	   l_ground_force_px	   l_ground_force_py	   l_ground_force_pz	     ground_torque_x	     ground_torque_y	     ground_torque_z	   l_ground_torque_x	   l_ground_torque_y	   l_ground_torque_z	
          1.41600000	        -25.10099276	        450.93402672	        -13.27875628	          1.02678932	          0.00000000	          0.03649767	          0.00000000	          0.00000000	          0.00000000	          0.00000000	          0.00000000	          0.00000000	          0.00000000	          0.68117393	          0.00000000	          0.00000000	          0.00000000	          0.00000000	
          1.42000000	        -24.91143425	        447.76551630	        -10.46954187	          1.02734751	          0.00000000	          0.03626899	          0.00000000	          0.00000000	          0.00000000	          0.00000000	          0.00000000	          0.00000000	          0.00000000	          0.95099639	          0.00000000	          0.00000000	          0.00000000	          0.00000000	
          1.42400000	        -27.10536568	        445.11490247	         -7.73684434	          1.02823612	          0.00000000	          0.03602709	          0.00000000	          0.00000000	          0.00000000	          0.00000000	          0.00000000	          0.00000000	          0.00000000	          1.25282094	          0.00000000	          0.00000000	          0.00000000	          0.00000000	
          1.42800000	        -30.62322052	        442.90104103	         -5.59447883	          1.02930214	          0.00000000	          0.03580359	          0.00000000	          0.00000000	          0.00000000	          0.00000000	          0.00000000	          0.00000000	          0.00000000	          1.53717558	          0.00000000	          0.00000000	          0.00000000	          0.00000000	
          1.43200000	        -34.09347424	        441.05382481	         -4.43552845	          1.03033231	          0.00000000	          0.03562666	          0.00000000	          0.00000000	          0.00000000	          0.00000000	          0.00000000	          0.00000000	          0.00000000	          1.75816656	          0.00000000	          0.00000000	          0.00000000	          0.00000000	
          1.43600000	        -36.20359271	        439.52251495	         -4.45143581	          1.03111687	          0.00000000	          0.03551198	          0.00000000	          0.00000000	          0.00000000	          0.00000000	          0.00000000	          0.00000000	          0.00000000	          1.88431016	          0.00000000	          0.00000000	          0.00000000	          0.00000000	
          1.44000000	        -36.04880774	        438.26110805	         -5.61355265	          1.03152940	          0.00000000	          0.03547039	          0.00000000	          0.00000000	          0.00000000	          0.00000000	          0.00000000	          0.00000000	          0.00000000	          1.90542420	          0.00000000	          0.00000000	          0.00000000	          0.00000000	
          1.44400000	        -33.35336848	        437.23188656	         -7.69976236	          1.03153617	          0.00000000	          0.03550473	          0.00000000	          0.00000000	          0.00000000	          0.00000000	          0.00000000	          0.00000000	          0.00000000	          1.83376121	          0.00000000	          0.00000000	          0.00000000	          0.00000000	
          1.44800000	        -28.51309886	        436.42932317	        -10.34496096	          1.03119634	          0.00000000	          0.03560487	          0.00000000	          0.00000000	          0.00000000	          0.00000000	          0.00000000	          0.00000000	          0.00000000	          1.69980121	          0.00000000	          0.00000000	          0.00000000	          0.00000000	
          1.45200000	        -22.46380496	        435.89042621	        -13.11453763	          1.03064650	          0.00000000	          0.03575086	          0.00000000	          0.00000000	          0.00000000	          0.00000000	          0.00000000	          0.00000000	          0.00000000	          1.54475887	          0.00000000	          0.00000000	          0.00000000	          0.00000000	
          1.45600000	        -16.41381868	        435.67920965	        -15.58492333	          1.03005944	          0.00000000	          0.03591956	          0.00000000	          0.00000000	          0.00000000	          0.00000000	          0.00000000	          0.00000000	          0.00000000	          1.41217256	          0.00000000	          0.00000000	          0.00000000	          0.00000000	
          1.46000000	        -11.51091649	        435.86557976	        -17.40781602	          1.02961296	          0.00000000	          0.03608445	          0.00000000	          0.00000000	          0.00000000	          0.00000000	          0.00000000	          0.00000000	          0.00000000	          1.34020613	          0.00000000	          0.00000000	          0.00000000	          0.00000000	
          1.46400000	         -8.53751423	        436.51966108	        -18.35404265	          1.02943860	          0.00000000	          0.03621608	          0.00000000	          0.00000000	          0.00000000	          0.00000000	          0.00000000	          0.00000000	          0.00000000	          1.35540579	          0.00000000	          0.00000000	          0.00000000	          0.00000000	
          1.46800000	         -7.71924525	        437.70986402	        -18.34426874	          1.02956880	          0.00000000	          0.03629391	          0.00000000	          0.00000000	          0.00000000	          0.00000000	          0.00000000	          0.00000000	          0.00000000	          1.46831333	          0.00000000	          0.00000000	          0.00000000	          0.00000000	
          1.47200000	         -8.68870227	        439.48610595	        -17.46292260	          1.02994631	          0.00000000	          0.03631761	          0.00000000	          0.00000000	          0.00000000	          0.00000000	          0.00000000	          0.00000000	          0.00000000	          1.67152914	          0.00000000	          0.00000000	          0.00000000	          0.00000000	
          1.47600000	        -10.60111066	        441.85785928	        -15.94577664	          1.03043989	          0.00000000	          0.03630302	          0.00000000	          0.00000000	          0.00000000	          0.00000000	          0.00000000	          0.00000000	          0.00000000	          1.94097238	          0.00000000	          0.00000000	          0.00000000	          0.00000000	
          1.48000000	        -12.37096091	        444.79041341	        -14.14280240	          1.03088508	          0.00000000	          0.03626876	          0.00000000	          0.00000000	          0.00000000	          0.00000000	          0.00000000	          0.00000000	          0.00000000	          2.24066047	          0.00000000	          0.00000000	          0.00000000	          0.00000000	
          1.48400000	        -12.97029234	        448.23096962	        -12.45992388	          1.03113482	          0.00000000	          0.03623911	          0.00000000	          0.00000000	          0.00000000	          0.00000000	          0.00000000	          0.00000000	          0.00000000	          2.53033659	          0.00000000	          0.00000000	          0.00000000	          0.00000000	
          1.48800000	        -11.70382359	        452.14484970	        -11.28011944	          1.03109159	          0.00000000	          0.03624029	          0.00000000	          0.00000000	          0.00000000	          0.00000000	          0.00000000	          0.00000000	          0.00000000	          2.77422819	          0.00000000	          0.00000000	          0.00000000	          0.00000000	
          1.49200000	         -8.37722026	        456.53293603	        -10.88449667	          1.03074049	          0.00000000	          0.03628212	          0.00000000	          0.00000000	          0.00000000	          0.00000000	          0.00000000	          0.00000000	          0.00000000	          2.94870195	          0.00000000	          0.00000000	          0.00000000	          0.00000000	
          1.49600000	         -3.31822847	        461.42156182	        -11.40124560	          1.03014312	          0.00000000	          0.03636372	          0.00000000	          0.00000000	          0.00000000	          0.00000000	          0.00000000	          0.00000000	          0.00000000	          3.04687014	          0.00000000	          0.00000000	          0.00000000	          0.00000000	
          1.50000000	          2.73427705	        466.83520186	        -12.78248852	          1.02940887	          0.00000000	          0.03648106	          0.00000000	          0.00000000	          0.00000000	          0.00000000	          0.00000000	          0.00000000	          0.00000000	          3.07914059	          0.00000000	          0.00000000	          0.00000000	          0.00000000	
          1.50400000	          8.84248955	        472.78609514	        -14.80966489	          1.02869285	          0.00000000	          0.03661712	          0.00000000	          0.00000000	          0.00000000	          0.00000000	          0.00000000	          0.00000000	          0.00000000	          3.06986554	          0.00000000	          0.00000000	          0.00000000	          0.00000000	
          1.50800000	         14.13366070	        479.29305983	        -17.14200575	          1.02812762	          0.00000000	          0.03673886	          0.00000000	          0.00000000	          0.00000000	          0.00000000	          0.00000000	          0.00000000	          0.00000000	          3.05126410	          0.00000000	          0.00000000	          0.00000000	          0.00000000	
          1.51200000	         18.03354137	        486.38645251	        -19.39099982	          1.02777859	          0.00000000	          0.03682431	          0.00000000	          0.00000000	          0.00000000	          0.00000000	          0.00000000	          0.00000000	          0.00000000	          3.05636523	          0.00000000	          0.00000000	          0.00000000	          0.00000000	
          1.51600000	         20.40094560	        494.07531716	        -21.18553969	          1.02764202	          0.00000000	          0.03686159	          0.00000000	          0.00000000	          0.00000000	          0.00000000	          0.00000000	          0.00000000	          0.00000000	          3.11263307	          0.00000000	          0.00000000	          0.00000000	          0.00000000	
          1.52000000	         21.53890313	        502.31702919	        -22.22571631	          1.02766723	          0.00000000	          0.03685175	          0.00000000	          0.00000000	          0.00000000	          0.00000000	          0.00000000	          0.00000000	          0.00000000	          3.23733507	          0.00000000	          0.00000000	          0.00000000	          0.00000000	
